<svg enable-background="new 0 0 252 252" height="252" viewBox="0 0 252 252" width="252" xmlns="http://www.w3.org/2000/svg"><circle cx="126" cy="126" fill="#fff" opacity=".6" r="121.166" stroke="#000" stroke-miterlimit="10" stroke-width=".6"/><path d="m92.252 125.998c0 4.641-3.761 8.402-8.397 8.402-4.637 0-8.398-3.762-8.398-8.402 0-4.635 3.761-8.396 8.398-8.396 4.636 0 8.397 3.761 8.397 8.396z" opacity=".6"/><path d="m134.396 125.998c0 4.641-3.761 8.402-8.396 8.402-4.639 0-8.4-3.762-8.4-8.402 0-4.635 3.761-8.396 8.4-8.396 4.635 0 8.396 3.761 8.396 8.396z" opacity=".6"/><path d="m176.685 125.998c0 4.641-3.761 8.402-8.397 8.402-4.64 0-8.4-3.762-8.4-8.402 0-4.635 3.761-8.396 8.4-8.396 4.636 0 8.397 3.761 8.397 8.396z" opacity=".6"/></svg>