<?xml version="1.0" encoding="iso-8859-1"?>
<!-- Generator: Adobe Illustrator 16.0.0, SVG Export Plug-In . SVG Version: 6.00 Build 0)  -->
<!DOCTYPE svg PUBLIC "-//W3C//DTD SVG 1.1//EN" "http://www.w3.org/Graphics/SVG/1.1/DTD/svg11.dtd">
<svg xmlns="http://www.w3.org/2000/svg" xmlns:xlink="http://www.w3.org/1999/xlink" version="1.1" id="Capa_1" x="0px" y="0px" width="512px" height="512px" viewBox="0 0 459.758 459.758" style="enable-background:new 0 0 459.758 459.758;" xml:space="preserve">
<g>
	<g>
		<path d="M447.258,73.081l-105.004,0.016V54.086c0-6.903-5.597-12.5-12.5-12.5h-199.75c-6.903,0-12.5,5.597-12.5,12.5v19.011    L12.5,73.081c-6.904,0-12.5,5.597-12.5,12.5v320.091c0,6.903,5.596,12.5,12.5,12.5h69.917c6.903,0,12.5-5.597,12.5-12.5V346.68    l22.587-0.049v59.041c0,6.903,5.597,12.5,12.5,12.5h76.795c6.903,0,12.5-5.597,12.5-12.5v-66.027h21.16v66.027    c0,6.903,5.597,12.5,12.5,12.5h76.795c6.903,0,12.5-5.597,12.5-12.5v-59.041l22.587,0.049v58.992c0,6.903,5.597,12.5,12.5,12.5    h69.917c6.904,0,12.5-5.597,12.5-12.5V85.581C459.758,78.678,454.162,73.081,447.258,73.081z M117.504,321.68H82.417    c-6.904,0-12.5,5.598-12.5,12.5v58.992H25V98.081l92.504-0.034V321.68z M317.254,393.172h-51.795v-66.027    c0-6.902-5.598-12.5-12.5-12.5h-46.16c-6.903,0-12.5,5.598-12.5,12.5v66.027h-51.795V66.586h174.75V393.172z M434.758,393.172    h-44.917V334.18c0-6.902-5.596-12.5-12.5-12.5h-35.087V98.047h4.847c0.195,0.01,0.388,0.034,0.584,0.034h87.072L434.758,393.172    L434.758,393.172z" fill="#a5dceb"/>
		<path d="M84.742,128.686H60.655c-2.476,0-4.484,2.008-4.484,4.484v24.087c0,2.478,2.008,4.484,4.484,4.484h24.087    c2.477,0,4.484-2.007,4.484-4.484V133.17C89.227,130.693,87.219,128.686,84.742,128.686z" fill="#a5dceb"/>
		<path d="M84.742,196.227H60.655c-2.476,0-4.484,2.007-4.484,4.484v24.086c0,2.477,2.008,4.484,4.484,4.484h24.087    c2.477,0,4.484-2.008,4.484-4.484v-24.086C89.227,198.233,87.219,196.227,84.742,196.227z" fill="#a5dceb"/>
		<path d="M84.742,263.766H60.655c-2.476,0-4.484,2.008-4.484,4.484v24.088c0,2.477,2.008,4.484,4.484,4.484h24.087    c2.477,0,4.484-2.008,4.484-4.484V268.25C89.227,265.773,87.219,263.766,84.742,263.766z" fill="#a5dceb"/>
		<path d="M375.016,161.741h24.087c2.478,0,4.484-2.007,4.484-4.484V133.17c0-2.477-2.008-4.484-4.484-4.484h-24.087    c-2.477,0-4.483,2.008-4.483,4.484v24.087C370.531,159.734,372.539,161.741,375.016,161.741z" fill="#a5dceb"/>
		<path d="M375.016,229.281h24.087c2.478,0,4.484-2.008,4.484-4.484v-24.086c0-2.478-2.008-4.484-4.484-4.484h-24.087    c-2.477,0-4.483,2.007-4.483,4.484v24.086C370.531,227.274,372.539,229.281,375.016,229.281z" fill="#a5dceb"/>
		<path d="M375.016,296.822h24.087c2.478,0,4.484-2.008,4.484-4.484V268.25c0-2.477-2.008-4.484-4.484-4.484h-24.087    c-2.477,0-4.483,2.008-4.483,4.484v24.088C370.531,294.814,372.539,296.822,375.016,296.822z" fill="#a5dceb"/>
		<path d="M179.045,137.077h24.087c2.477,0,4.484-2.008,4.484-4.485v-24.086c0-2.477-2.008-4.484-4.484-4.484h-24.087    c-2.477,0-4.485,2.008-4.485,4.484v24.086C174.56,135.069,176.568,137.077,179.045,137.077z" fill="#a5dceb"/>
		<path d="M179.045,204.617h24.087c2.477,0,4.484-2.008,4.484-4.484v-24.087c0-2.477-2.008-4.484-4.484-4.484h-24.087    c-2.477,0-4.485,2.008-4.485,4.484v24.087C174.56,202.609,176.568,204.617,179.045,204.617z" fill="#a5dceb"/>
		<path d="M179.045,272.156h24.087c2.477,0,4.484-2.008,4.484-4.483v-24.087c0-2.479-2.008-4.484-4.484-4.484h-24.087    c-2.477,0-4.485,2.008-4.485,4.484v24.087C174.56,270.15,176.568,272.156,179.045,272.156z" fill="#a5dceb"/>
		<path d="M256.626,137.077h24.087c2.477,0,4.485-2.008,4.485-4.485v-24.086c0-2.477-2.009-4.484-4.485-4.484h-24.087    c-2.478,0-4.483,2.008-4.483,4.484v24.086C252.143,135.069,254.15,137.077,256.626,137.077z" fill="#a5dceb"/>
		<path d="M256.626,204.617h24.087c2.477,0,4.485-2.008,4.485-4.484v-24.087c0-2.477-2.009-4.484-4.485-4.484h-24.087    c-2.478,0-4.483,2.008-4.483,4.484v24.087C252.143,202.609,254.15,204.617,256.626,204.617z" fill="#a5dceb"/>
		<path d="M256.626,272.156h24.087c2.477,0,4.485-2.008,4.485-4.483v-24.087c0-2.479-2.009-4.484-4.485-4.484h-24.087    c-2.478,0-4.483,2.008-4.483,4.484v24.087C252.143,270.15,254.15,272.156,256.626,272.156z" fill="#a5dceb"/>
	</g>
</g>
<g>
</g>
<g>
</g>
<g>
</g>
<g>
</g>
<g>
</g>
<g>
</g>
<g>
</g>
<g>
</g>
<g>
</g>
<g>
</g>
<g>
</g>
<g>
</g>
<g>
</g>
<g>
</g>
<g>
</g>
</svg>
