<?xml version="1.0"?>
<svg xmlns="http://www.w3.org/2000/svg" height="512px" viewBox="-124 -21 682 682.66669" width="512px"><path d="m411.625 80-63.835938-63.835938v63.835938zm0 0" fill="#3dc2cf"/><path d="m202.425781 111.738281c-1.117187.367188-15.140625 19.761719 1.097657 36.171875 10.8125-23.785156-.605469-36.324218-1.097657-36.171875zm0 0" fill="#3dc2cf"/><path d="m178.882812 292c23.792969-9.117188 49.679688-17.085938 73.976563-22.71875-15.371094-17.636719-30.730469-39.65625-43.527344-62.359375-8.140625 27.820313-18.894531 57.867187-30.449219 85.078125zm0 0" fill="#3dc2cf"/><path d="m104.140625 361.78125c-.113281 1.03125-.425781 3.761719 4.902344 7.785156 1.695312-.527344 11.609375-4.996094 30.066406-38.636718-24.339844 13.492187-34.269531 24.585937-34.96875 30.851562zm0 0" fill="#3dc2cf"/><path d="m294.402344 280.945312c9.277344 7.054688 11.554687 10.621094 17.625 10.621094 2.660156 0 10.253906-.117187 13.769531-4.960937 1.703125-2.351563 2.367187-3.863281 2.617187-4.652344-1.394531-.742187-3.257812-2.21875-13.378906-2.21875-5.753906 0-12.976562.257813-20.632812 1.210937zm0 0" fill="#3dc2cf"/><path d="m336.355469 102.855469c-6.308594 0-11.425781-5.117188-11.425781-11.425781v-91.429688h-331.429688v434.289062h434.289062v-331.433593zm5.039062 194.765625c-6.339843 8.765625-15.070312 13.394531-25.277343 13.394531-13.851563 0-29.976563-8.636719-47.964844-25.703125-32.308594 6.675781-70.03125 18.574219-100.527344 31.738281-9.519531 19.957031-18.640625 36.027344-27.140625 47.816407-11.648437 16.164062-21.707031 23.703124-31.671875 23.703124-3.964844 0-7.769531-1.265624-11.003906-3.667968-11.863282-8.800782-13.449219-18.570313-12.695313-25.234375 2.078125-18.296875 25.003907-37.476563 68.15625-57.007813 17.136719-37.070312 33.429688-82.753906 43.144531-120.910156-11.371093-24.4375-22.410156-56.125-14.363281-74.722656 2.820313-6.515625 6.351563-11.519532 12.914063-13.675782 2.601562-.859374 9.152344-1.9375 11.578125-1.9375 5.738281 0 10.777343 7.304688 14.351562 11.796876 3.359375 4.242187 10.984375 13.199218-4.25 76.515624 15.347657 31.304688 37.09375 63.199219 57.929688 85.039063 14.945312-2.660156 27.792969-4.015625 38.253906-4.015625 17.824219 0 28.636719 4.109375 33.035156 12.550781 3.636719 7.019531 2.128907 15.199219-4.46875 24.320313zm0 0" fill="#3dc2cf"/><path d="m187.789062 502.855469v91.433593c25.207032 0 45.710938-20.503906 45.710938-45.71875 0-25.210937-20.511719-45.714843-45.710938-45.714843zm0 0" fill="#3dc2cf"/><path d="m-6.5 457.144531v182.855469h434.289062v-182.855469zm91.429688 114.285157h-22.859376v34.28125c0 6.3125-5.117187 11.433593-11.425781 11.433593-6.308593 0-11.429687-5.121093-11.429687-11.433593v-114.28125c0-6.308594 5.121094-11.429688 11.429687-11.429688h34.285157c25.210937 0 45.714843 20.503906 45.714843 45.710938 0 25.21875-20.511719 45.71875-45.714843 45.71875zm102.859374 45.714843h-11.433593c-6.308594 0-11.425781-5.121093-11.425781-11.433593v-114.28125c0-6.308594 5.117187-11.429688 11.425781-11.429688h11.433593c37.816407 0 68.566407 30.75 68.566407 68.570312 0 37.816407-30.765625 68.574219-68.566407 68.574219zm182.855469-80c6.308594 0 11.425781 5.117188 11.425781 11.425781 0 6.308594-5.117187 11.429688-11.425781 11.429688h-57.144531v45.710938c0 6.3125-5.121094 11.433593-11.429688 11.433593-6.308593 0-11.425781-5.121093-11.425781-11.433593v-114.28125c0-6.308594 5.117188-11.429688 11.425781-11.429688h68.574219c6.308594 0 11.425781 5.121094 11.425781 11.429688 0 6.308593-5.117187 11.425781-11.425781 11.425781h-57.144531v34.289062zm0 0" fill="#3dc2cf"/><path d="m84.929688 502.855469h-22.859376v45.714843h22.859376c12.605468 0 22.859374-10.25 22.859374-22.859374 0-12.601563-10.253906-22.855469-22.859374-22.855469zm0 0" fill="#3dc2cf"/></svg>
