<svg height="512pt" viewBox="0 -87 512 512" width="512pt" xmlns="http://www.w3.org/2000/svg"><path style="fill:#FFFFFF" d="m370.832031 172.066406h-38.234375c-15.238281 0-27.632812 12.398438-27.632812 27.632813v40.167969h93.5v-40.167969c0-15.234375-12.398438-27.632813-27.632813-27.632813zm0 0"/><path style="fill:#FFFFFF" d="m351.714844 142.066406c11.761718 0 21.332031-9.570312 21.332031-21.332031s-9.570313-21.332031-21.332031-21.332031c-11.765625 0-21.332032 9.570312-21.332032 21.332031s9.566407 21.332031 21.332032 21.332031zm0 0"/><path style="fill:#FFFFFF" d="m0 0v337h512v-337zm220.503906 241.5h-131.503906v-30h131.503906zm0-58h-131.503906v-30h131.503906zm0-58h-131.503906v-30h131.503906zm207.960938 144.367188h-153.5v-70.167969c0-22.980469 13.523437-42.855469 33.027344-52.101563-4.820313-7.820312-7.609376-17.019531-7.609376-26.863281 0-28.304687 23.027344-51.332031 51.332032-51.332031 28.304687 0 51.332031 23.027344 51.332031 51.332031 0 9.84375-2.789063 19.042969-7.613281 26.863281 19.503906 9.246094 33.03125 29.121094 33.03125 52.101563zm0 0"/></svg>