<?xml version="1.0" encoding="utf-8"?>
<!-- Generator: Adobe Illustrator 16.0.0, SVG Export Plug-In . SVG Version: 6.00 Build 0)  -->
<!DOCTYPE svg PUBLIC "-//W3C//DTD SVG 1.1//EN" "http://www.w3.org/Graphics/SVG/1.1/DTD/svg11.dtd">
<svg version="1.1" id="Layer_1" xmlns="http://www.w3.org/2000/svg" xmlns:xlink="http://www.w3.org/1999/xlink" x="0px" y="0px"
	 width="216px" height="216px" viewBox="0 0 216 216" enable-background="new 0 0 216 216" xml:space="preserve">
<g>
	<path fill-rule="evenodd" clip-rule="evenodd" fill="#1C2B58" d="M19.981,45.432c0.138-3.499,2.873-6.167,6.328-6.167
		c54.556,0,109.111,0,163.667,0c3.489,0,6.339,2.768,6.443,6.262c0.009,0.342,0,0.686,0,1.028c0,36.313,0.001,72.627,0.001,108.939
		c0,3.521-1.66,5.783-4.999,6.814c-0.466-0.121-0.938-0.062-1.407-0.062c-54.274-0.003-108.546-0.003-162.819,0.002
		c-0.509,0-1.028-0.097-1.527,0.093c-2.495-0.208-4.726-1.775-5.402-4.605c0.206-1.747,0.148-3.501,0.148-5.254
		c0.001-34.797,0.001-69.594-0.004-104.392c0-0.765,0.107-1.542-0.134-2.292C20.201,45.659,20.102,45.537,19.981,45.432z"/>
	<path fill-rule="evenodd" clip-rule="evenodd" fill="#1C2B58" d="M152.369,175.744c-0.432,0.082-0.533,0.224-0.295,0.678
		c2.179,4.151,4.321,8.321,6.479,12.483c1.472,2.838,2.946,5.674,4.427,8.507c0.53,1.016,1.15,1.988,1.614,3.034
		c1.074,2.428-0.12,5.441-3.278,5.129c-1.086-0.107-1.712-0.77-2.152-1.598c-1.936-3.647-3.818-7.324-5.716-10.993
		c-1.287-2.492-2.567-4.988-3.851-7.484c0.127-0.362-0.098-0.552-0.356-0.727c-1.619-3.003-3.239-6.008-4.857-9.011
		c-0.388-0.281-0.831-0.146-1.246-0.146c-22.288-0.008-44.576-0.008-66.863-0.002c-0.419,0-0.858-0.108-1.257,0.125
		c-1.21-0.126-1.854,0.452-2.422,1.528c-2.6,4.922-5.295,9.794-7.973,14.676c-2.083,3.797-4.192,7.579-6.289,11.367
		c-0.809,0.18-0.769,1.648-1.94,1.279c-0.013,0.162,0.259,0.252,0.116,0.448c-0.25,0.108-0.471,0.313-0.778,0.237
		c-0.43-0.244-0.931,0.008-1.366-0.195c-0.139-0.044-0.278-0.087-0.417-0.129c-0.593-0.385-0.92-1.04-1.478-1.459
		c-0.862-2.01,0.212-3.628,1.102-5.259c2.072-3.8,4.182-7.58,6.272-11.37c1.845-3.347,3.693-6.69,5.516-10.05
		c0.166-0.307,0.712-0.651,0.128-1.079c-0.315-0.2-0.667-0.121-1.002-0.121c-15.764-0.005-31.527-0.004-47.292-0.004
		c-0.256,0-0.514-0.019-0.765,0.061c-1.579-0.25-2.25-0.876-2.616-2.438c-0.155-0.63-0.151-1.261-0.002-1.892
		c0.434-1.539,1.37-2.337,2.875-2.416c0.512-0.025,1.026,0.01,1.541,0.01c60.305,0,120.61-0.004,180.915-0.005
		c1.989,0,3.469,1.236,3.612,3.009c0.153,1.907-0.978,3.397-2.833,3.735c-0.59-0.156-1.19-0.057-1.785-0.059
		c-14.883-0.006-29.767-0.006-44.649,0.002C153.113,175.616,152.715,175.474,152.369,175.744z"/>
	<path fill-rule="evenodd" clip-rule="evenodd" fill="#1C2B58" d="M133.188,30.556c-0.224,1.189-1.244,1.557-2.131,2.063
		c-0.465,0.085-0.934,0.087-1.405,0.087c-14.424-0.001-28.847,0-43.27-0.005c-0.38,0-0.772,0.081-1.138-0.1
		c-1.351-0.298-2.082-1.265-2.245-2.511c-0.187-1.434-0.072-2.889,1.529-3.641c1.846-0.326,3.709-0.08,5.563-0.167
		c0.624-0.029,1.265,0.153,1.872-0.127c0.571-0.422,0.305-1.034,0.29-1.544c-0.09-3.084,0.28-6.08,1.517-8.938
		c2.262-5.232,7.69-9.424,13.996-9.627c8.382-0.271,15.268,6.634,16.126,14.478c0.203,1.873-0.064,3.744,0.275,5.593
		c2.115,0.31,4.233,0.228,6.352,0.039c1.515,0.001,2.177,0.558,2.781,2.332C133.15,29.17,133.247,29.867,133.188,30.556z"/>
	<path fill-rule="evenodd" clip-rule="evenodd" fill="#1E2D5D" d="M20.261,45.434c0.51-0.033,0.444,0.408,0.493,0.676
		c0.067,0.373,0.023,0.768,0.023,1.153c0,36.046,0,72.094,0.01,108.142c0,0.83-0.041,1.621-0.521,2.331
		c-0.321-0.277-0.207-0.67-0.266-1.016c0.271-0.482,0.132-1.008,0.132-1.51c0.008-36.087,0.006-72.173,0.013-108.261
		C20.146,46.446,20.024,45.924,20.261,45.434z"/>
	<path fill-rule="evenodd" clip-rule="evenodd" fill="#13274C" d="M25.669,162.342c0.445-0.395,0.984-0.213,1.478-0.213
		c54.26-0.01,108.521-0.01,162.781-0.001c0.498,0,1.031-0.164,1.494,0.181c-0.382,0.025-0.764,0.076-1.146,0.076
		c-54.485,0.003-108.969,0.003-163.455,0C26.438,162.385,26.053,162.357,25.669,162.342z"/>
	<path fill-rule="evenodd" clip-rule="evenodd" fill="#172851" d="M20.261,45.434c0.001,36.653,0.003,73.305-0.004,109.958
		c0,0.448,0.178,0.954-0.256,1.328c-0.029-0.424-0.083-0.849-0.083-1.271c-0.003-36.248-0.002-72.494,0-108.741
		c0-0.425,0.041-0.851,0.063-1.277C20.075,45.432,20.168,45.433,20.261,45.434z"/>
	<path fill-rule="evenodd" clip-rule="evenodd" fill="#17274F" d="M75.017,175.739c0.379-0.423,0.883-0.246,1.332-0.246
		c22.24-0.008,44.482-0.008,66.723,0.001c0.441,0,0.954-0.198,1.313,0.269c-0.856,0.011-1.711,0.033-2.567,0.033
		c-21.755,0.003-43.509,0.003-65.263,0C76.041,175.796,75.529,175.758,75.017,175.739z"/>
	<path fill-rule="evenodd" clip-rule="evenodd" fill="#17274F" d="M16.429,175.67c0.421-0.32,0.91-0.177,1.368-0.179
		c15.453-0.008,30.906-0.008,46.358,0.002c0.449,0,0.951-0.179,1.333,0.241c-0.382,0.021-0.765,0.062-1.147,0.062
		c-15.596,0.003-31.191,0.005-46.788,0.001C17.176,175.797,16.783,175.889,16.429,175.67z"/>
	<path fill-rule="evenodd" clip-rule="evenodd" fill="#17274F" d="M152.369,175.744c-0.01-0.168-0.241-0.492,0.15-0.428
		c2.337,0.388,4.688,0.148,7.029,0.154c12.921,0.031,25.843,0.01,38.764,0.038c0.521,0.002,1.124-0.351,1.608,0.164
		c-0.292,0.044-0.582,0.128-0.872,0.128c-15.391,0.003-30.781,0-46.172-0.007C152.708,175.794,152.538,175.761,152.369,175.744z"/>
	<path fill-rule="evenodd" clip-rule="evenodd" fill="#1D2F5A" d="M85.245,32.6c14.649-0.008,29.299-0.02,43.949-0.01
		c0.62,0.001,1.249-0.22,1.864,0.028c-0.313,0.355-0.724,0.172-1.083,0.172c-14.506,0.01-29.014,0.011-43.52-0.001
		C86.053,32.79,85.597,32.977,85.245,32.6z"/>
	<path fill-rule="evenodd" clip-rule="evenodd" fill="#17284E" d="M91.964,26.154c-0.547,0.495-1.211,0.227-1.816,0.244
		c-1.872,0.049-3.746,0.038-5.619,0.05c0.3-0.274,0.658-0.36,1.058-0.355C87.712,26.117,89.838,26.134,91.964,26.154z"/>
	<path fill-rule="evenodd" clip-rule="evenodd" fill="#15264C" d="M130.52,26.155c-1.514,0.572-3.083,0.122-4.622,0.248
		c-0.614,0.05-1.232,0.01-1.849,0.005c-0.012,0-0.043-0.08-0.03-0.102c0.043-0.069,0.1-0.128,0.149-0.19
		C126.287,26.128,128.403,26.142,130.52,26.155z"/>
	<path fill-rule="evenodd" clip-rule="evenodd" fill="#1B2C55" d="M56.508,205.038c-0.159-0.368-0.779-0.135-0.854-0.751
		c1.015,0.306,1.759,0.013,2.198-0.954c0.082-0.181,0.306-0.307,0.48-0.022C57.916,204.088,57.443,204.808,56.508,205.038z"/>
	<path fill-rule="evenodd" clip-rule="evenodd" fill="#1B2C55" d="M52.47,203.492c0.445,0.095,1.201,0.841,1.478,1.459
		C53.141,204.782,52.807,204.136,52.47,203.492z"/>
	<path fill-rule="evenodd" clip-rule="evenodd" fill="#122548" d="M133.188,30.556c-0.252-0.706-0.154-1.392,0.112-2.069
		C133.35,29.181,133.529,29.882,133.188,30.556z"/>
	<path fill-rule="evenodd" clip-rule="evenodd" fill="#163050" d="M13.811,171.34c0.001,0.631,0.001,1.262,0.002,1.892
		C13.435,172.602,13.435,171.971,13.811,171.34z"/>
	<path fill-rule="evenodd" clip-rule="evenodd" fill="#18294D" d="M149.241,184.773c0.355-0.057,0.553,0.133,0.641,0.443
		c0.062,0.223-0.113,0.264-0.284,0.283C149.392,185.302,149.243,185.073,149.241,184.773z"/>
	<path fill-rule="evenodd" clip-rule="evenodd" fill="#1B2C55" d="M54.364,205.08c0.463,0.01,0.958-0.202,1.366,0.195
		C55.267,205.27,54.766,205.521,54.364,205.08z"/>
	<path fill-rule="evenodd" clip-rule="evenodd" fill="#FFFFFF" d="M77.263,99.119c-3.946,4.182-7.893,8.363-11.838,12.546
		c-1.289,1.365-2.626,2.682-3.901,4.063c-3.299,3.574-6.714,7.041-10.097,10.537c-1.036,1.069-2.724,1.253-3.83,0.474
		c-1.224-0.861-1.667-2.648-0.977-3.992c0.213-0.413,0.461-0.809,0.692-1.213c0.303-0.895,1.115-1.28,1.797-1.796
		c0.784-0.486,1.143-1.354,1.774-1.977c0.333-0.738,0.874-1.27,1.604-1.613c3.907-4.077,7.813-8.155,11.721-12.232
		c0.568-0.592,0.878-1.4,1.575-1.886c0.144-0.388,0.412-0.652,0.796-0.799c1.628-1.701,3.257-3.4,4.886-5.1l0.001-0.003
		c1.715-2.267,4.01-3.98,5.854-6.129c0.967-1.128,2.001-2.204,3.046-3.263c1.495-1.515,3.255-1.54,4.708-0.029
		c2.744,2.852,5.448,5.743,8.167,8.618c1.434,1.22,2.917,2.395,3.837,4.095c1.269,1.371,2.521,2.757,3.811,4.108
		c3.301,3.456,6.631,6.884,9.924,10.347c1.552,1.631,3.06,3.304,4.56,4.982c0.476,0.529,0.802,0.736,1.389,0.08
		c1.558-1.743,3.188-3.423,4.79-5.127c0.105-0.796,0.721-1.153,1.316-1.528c0.076-0.076,0.153-0.151,0.229-0.227
		c0.587-0.954,1.436-1.654,2.274-2.365c0.068-0.059,0.103-0.135,0.106-0.225c0.955-1.412,2.213-2.528,3.521-3.592
		c3.454-3.599,6.919-7.188,10.359-10.801c5-5.252,9.988-10.514,14.965-15.788c1.364-1.446,2.67-2.949,4.001-4.426
		c0.09-0.531,0.389-0.937,0.754-1.312c0.474-0.485,0.246-0.684-0.311-0.833c-0.803-0.216-1.613-0.165-2.421-0.165
		c-12.793-0.007-25.586-0.003-38.38-0.013c-0.533,0-1.127,0.189-1.579-0.295c-1.875-1.244-2.339-2.916-1.302-4.63
		c0.602-0.996,1.446-1.468,2.627-1.467c16.738,0.012,33.478,0.025,50.217-0.01c1.82-0.004,2.433,1.254,3.18,2.477
		c0.213,0.999,0.282,2.01,0.282,3.03c0,16.296,0,32.594,0,48.892c0,0.851-0.031,1.697-0.275,2.519
		c-0.459,0.659-0.62,1.536-1.336,1.995c-0.792,0.507-1.803,1.133-2.595,0.697c-1.138-0.624-2.218-1.566-2.24-3.118
		c-0.008-0.514-0.001-1.028-0.001-1.541c0-14.167,0-28.333,0-42.5c0-0.409,0-0.818,0-1.659c-2.404,2.616-4.541,4.944-6.68,7.272
		c-0.79,1.33-2.052,2.217-3.093,3.311c-0.528,0.361-0.962,0.813-1.333,1.331c-0.397,0.879-1.223,1.375-1.85,2.046
		c-3.189,2.911-5.992,6.195-8.979,9.303c-5.413,5.631-10.788,11.298-16.163,16.966c-2.4,2.531-4.759,5.102-7.137,7.654
		c-0.174,0.27-0.212,0.635-0.559,0.778c-0.092,0.087-0.183,0.176-0.272,0.262c-0.126,0.694-0.702,0.848-1.248,1.038
		c-1.427,0.522-2.648,0.459-3.796-0.787c-2.656-2.882-5.419-5.664-8.138-8.487c-0.828-0.408-1.44-1.034-1.862-1.852
		c-1.545-2.159-3.584-3.868-5.355-5.824c-3.178-3.506-6.541-6.845-9.805-10.275c-1.732-1.819-3.454-3.65-5.107-5.54
		c-0.67-0.767-1.089-0.681-1.683,0.031c-0.897,1.076-1.861,2.095-2.796,3.139C78.647,98.065,78.037,98.674,77.263,99.119z"/>
	<path fill-rule="evenodd" clip-rule="evenodd" fill="#1E2B5B" d="M118.189,65.222c15.963,0,31.926-0.001,47.891,0.009
		c0.489,0.001,1.036-0.196,1.459,0.249c-0.192,0.716-0.779,0.359-1.159,0.362c-5.133,0.029-10.265,0.019-15.397,0.019
		c-10.563,0-21.128,0.005-31.692-0.019C118.89,65.839,118.08,66.256,118.189,65.222z"/>
	<path fill-rule="evenodd" clip-rule="evenodd" fill="#16284F" d="M171.118,123.05c-0.021-0.596-0.061-1.193-0.061-1.79
		c-0.001-17.167-0.001-34.332,0.002-51.499c0-0.383,0.033-0.768,0.052-1.151c0.658,0.392,0.082,1.018,0.284,1.497
		c0.224,0.401,0.118,0.839,0.118,1.259c0.006,16.466,0.006,32.933,0,49.399c0,0.42,0.107,0.858-0.118,1.259
		C171.354,122.38,171.524,122.793,171.118,123.05z"/>
	<path fill-rule="evenodd" clip-rule="evenodd" fill="#192751" d="M118.189,65.222c0.208,0.846,0.902,0.499,1.38,0.5
		c13.319,0.019,26.638,0.015,39.957,0.015c2.27,0,4.54,0.007,6.81-0.006c0.41-0.002,0.869,0.145,1.203-0.25
		c0.306,0.034,0.667-0.096,1.021,0.394c-17.186,0-34.215,0-51.29,0C117.431,65.322,117.82,65.291,118.189,65.222z"/>
	<path fill-rule="evenodd" clip-rule="evenodd" fill="#1D2D5C" d="M171.396,122.023c0-17.306,0-34.612,0-51.917
		c0.421,0.379,0.249,0.882,0.249,1.331c0.008,16.419,0.008,32.838,0,49.256C171.645,121.142,171.816,121.645,171.396,122.023z"/>
	<path fill-rule="evenodd" clip-rule="evenodd" fill="#1B2D59" d="M116.39,72.24c0.521,0.273,1.087,0.189,1.639,0.189
		c13.575,0.002,27.15,0.002,40.726,0.002c0.506,0,1.013,0,1.789,0c-0.677,1.062-1.524,1.68-2.217,2.427
		c-0.013-0.128-0.026-0.255-0.041-0.383c0.384-0.413-0.501-0.405-0.255-0.771l0,0c0.167-0.259,0.916-0.129,0.514-0.77
		c-0.815-0.268-1.661-0.257-2.503-0.257c-12.736-0.001-25.473,0.004-38.208-0.017C117.346,72.659,116.683,73.005,116.39,72.24z"/>
	<path fill-rule="evenodd" clip-rule="evenodd" fill="#202C5E" d="M167.205,64.397c-16.239,0-32.48,0-48.721,0
		c0-0.042,0-0.085,0-0.127c16.253,0,32.507,0,48.76,0C167.231,64.313,167.219,64.355,167.205,64.397z"/>
	<path fill-rule="evenodd" clip-rule="evenodd" fill="#172952" d="M167.218,64.917c-16.239,0-32.48,0-48.721,0
		c0-0.042,0-0.085,0-0.128c16.245,0,32.49,0,48.734,0C167.227,64.832,167.222,64.874,167.218,64.917z"/>
	<path fill-rule="evenodd" clip-rule="evenodd" fill="#162950" d="M97.081,99.419c-1.279-1.365-2.558-2.729-3.837-4.095
		c0.292-0.323,0.472,0.012,0.612,0.151c1.051,1.045,2.091,2.102,3.104,3.183C97.121,98.832,97.424,99.108,97.081,99.419z"/>
	<path fill-rule="evenodd" clip-rule="evenodd" fill="#192B53" d="M155.174,87.508c0.85-1.272,1.937-2.324,3.093-3.311
		c0.318,0.621-0.123,0.948-0.528,1.233c-0.79,0.558-1.5,1.166-1.941,2.057C155.711,87.657,155.393,87.847,155.174,87.508z"/>
	<path fill-rule="evenodd" clip-rule="evenodd" fill="#17294F" d="M129.001,105.873c-1.026,1.342-2.28,2.461-3.521,3.592
		c-0.191-0.088-0.25-0.238-0.102-0.387c1.102-1.109,2.208-2.209,3.325-3.3C128.739,105.744,128.9,105.838,129.001,105.873z"/>
	<path fill-rule="evenodd" clip-rule="evenodd" fill="#20305E" d="M75.299,90.986c-0.212,1.255-1.273,1.358-1.818,2.342
		C73.528,91.914,74.463,91.645,75.299,90.986z"/>
	<path fill-rule="evenodd" clip-rule="evenodd" fill="#20305E" d="M71.411,95.292c-0.036-1.104,0.618-1.549,1.743-1.885
		c-0.436,0.993-1.35,1.191-1.741,1.886L71.411,95.292z"/>
	<path fill-rule="evenodd" clip-rule="evenodd" fill="#17294F" d="M125.373,109.689c-0.604,0.938-1.441,1.648-2.274,2.365
		C123.468,110.893,124.315,110.189,125.373,109.689z"/>
	<path fill-rule="evenodd" clip-rule="evenodd" fill="#162A50" d="M49.11,119.738c-0.528,0.67-1.123,1.272-1.797,1.796
		c-0.29-0.165-0.342-0.429-0.085-0.604C47.841,120.513,48.278,119.809,49.11,119.738z"/>
	<path fill-rule="evenodd" clip-rule="evenodd" fill="#192B53" d="M151.991,90.885c0.378-0.897,1.137-1.452,1.85-2.046
		C153.81,90.05,152.732,90.315,151.991,90.885z"/>
	<path fill-rule="evenodd" clip-rule="evenodd" fill="#15274E" d="M77.263,99.119c0.53-0.689,1.14-1.297,1.828-1.829
		C78.852,98.27,78.241,98.877,77.263,99.119z"/>
	<path fill-rule="evenodd" clip-rule="evenodd" fill="#15294E" d="M103.838,115.76c0.704,0.535,1.318,1.158,1.862,1.852
		C104.666,117.41,104.05,116.787,103.838,115.76z"/>
	<path fill-rule="evenodd" clip-rule="evenodd" fill="#17294F" d="M122.87,112.281c-0.439,0.509-0.878,1.02-1.316,1.528
		C121.354,112.751,122.108,112.513,122.87,112.281z"/>
	<path fill-rule="evenodd" clip-rule="evenodd" fill="#13284C" d="M52.489,116.148c-0.456,0.616-1.002,1.144-1.604,1.613
		C51.022,116.829,51.554,116.288,52.489,116.148z"/>
	<path fill-rule="evenodd" clip-rule="evenodd" fill="#192A51" d="M117.634,126.886c0.417-0.346,0.831-0.692,1.248-1.038
		C118.938,126.673,118.813,126.775,117.634,126.886z"/>
	<path fill-rule="evenodd" clip-rule="evenodd" fill="#1E2E5D" d="M158.544,72.934c0.289,0.036,0.704,0.087,0.581,0.444
		c-0.169,0.489-0.704,0.285-1.095,0.326C158.2,73.446,158.372,73.19,158.544,72.934z"/>
	<path fill-rule="evenodd" clip-rule="evenodd" fill="#1E2E5D" d="M158.03,73.703c0.156,0.234,0.545,0.39,0.255,0.771
		c-0.218,0.072-0.462,0.256-0.629-0.042C157.431,74.029,157.741,73.863,158.03,73.703z"/>
	<path fill-rule="evenodd" clip-rule="evenodd" fill="#20305E" d="M71.413,95.294c0.019,0.278,0.037,0.556,0.055,0.833l-0.049-0.046
		l0.047,0.05c-0.393-0.078-0.626-0.298-0.55-0.714c0.062-0.341,0.308-0.165,0.495-0.125L71.413,95.294z"/>
	<path fill-rule="evenodd" clip-rule="evenodd" fill="#14284D" d="M66.581,101.231c-0.193,0.338-0.456,0.608-0.797,0.799
		C65.767,101.482,66.03,101.212,66.581,101.231z"/>
	<path fill-rule="evenodd" clip-rule="evenodd" fill="#192A51" d="M119.154,125.586c0.016-0.381,0.226-0.624,0.559-0.778
		C119.734,125.216,119.749,125.621,119.154,125.586z"/>
	<path fill-rule="evenodd" clip-rule="evenodd" fill="#FFFFFF" d="M98.936,26.101c-0.21-2.72-0.382-5.433,0.982-7.962
		c1.816-3.368,4.635-5.387,8.447-5.27c3.797,0.118,6.53,2.223,8.215,5.693c1.109,2.287,0.912,4.693,0.922,7.095
		c0.001,0.231-0.138,0.394-0.345,0.496c-0.517,0.188-1.036,0.36-1.601,0.36c-5.197-0.001-10.392,0.016-15.588-0.011
		c-0.214-0.001-0.424-0.033-0.629-0.099C99.183,26.333,99.049,26.231,98.936,26.101z"/>
	<path fill-rule="evenodd" clip-rule="evenodd" fill="#1D2E5C" d="M130.188,31.517c-14.854,0-29.704,0-44.556,0
		c0-0.043,0-0.086,0-0.129c14.869,0,29.738,0,44.608,0C130.222,31.431,130.204,31.473,130.188,31.517z"/>
	<path fill-rule="evenodd" clip-rule="evenodd" fill="#1D2D5C" d="M98.936,26.101c0.083,0.017,0.166,0.034,0.248,0.051
		c0.438,0.254,0.918,0.127,1.377,0.127c4.902,0.01,9.806,0.002,14.708,0.013c0.459,0.001,0.938-0.121,1.38,0.12
		c0.583,0.563,0.119,0.715-0.331,0.684c-5.532-0.388-11.068-0.091-16.601-0.14c-0.706-0.005-1.264-0.49-2.065-0.315
		C98.033,25.819,98.68,26.714,98.936,26.101z"/>
	<path fill-rule="evenodd" clip-rule="evenodd" fill="#15264C" d="M116.648,26.413c-5.382-0.001-10.762,0.003-16.142-0.01
		c-0.446-0.001-0.95,0.183-1.323-0.25c5.992,0,11.983,0,17.974,0.001C117.052,26.366,116.858,26.405,116.648,26.413z"/>
</g>
</svg>
