<?xml version="1.0"?>
<svg xmlns="http://www.w3.org/2000/svg" height="512px" viewBox="0 -87 512 512" width="512px"><path d="m0 0v337h512v-337zm482 307h-452v-277h452zm0 0" fill="#a5dceb"/><path d="m428.464844 199.699219c0-22.980469-13.523438-42.855469-33.027344-52.101563 4.820312-7.820312 7.609375-17.023437 7.609375-26.863281 0-28.304687-23.027344-51.332031-51.332031-51.332031-28.304688 0-51.332032 23.027344-51.332032 51.332031 0 9.839844 2.789063 19.042969 7.609376 26.863281-19.503907 9.246094-33.027344 29.121094-33.027344 52.101563v70.167969h153.5zm-76.75-100.300781c11.761718 0 21.332031 9.570312 21.332031 21.335937 0 11.761719-9.570313 21.332031-21.332031 21.332031-11.765625 0-21.332032-9.570312-21.332032-21.332031 0-11.765625 9.566407-21.335937 21.332032-21.335937zm46.75 140.46875h-93.5v-40.167969c0-15.234375 12.394531-27.632813 27.632812-27.632813h38.234375c15.234375 0 27.632813 12.398438 27.632813 27.632813zm0 0" fill="#a5dceb"/><path d="m89 95.5h131.503906v30h-131.503906zm0 0" fill="#a5dceb"/><path d="m89 153.5h131.503906v30h-131.503906zm0 0" fill="#a5dceb"/><path d="m89 211.5h131.503906v30h-131.503906zm0 0" fill="#a5dceb"/></svg>
